<?xml version="1.0" encoding="utf-8"?>
<!-- Generator: Adobe Illustrator 24.1.2, SVG Export Plug-In . SVG Version: 6.00 Build 0)  -->
<svg version="1.1" xmlns="http://www.w3.org/2000/svg" xmlns:xlink="http://www.w3.org/1999/xlink" x="0px" y="0px"
	 viewBox="0 0 167.6 87.5" style="enable-background:new 0 0 167.6 87.5;" xml:space="preserve">
<g id="Layer_2" style="display:none;">
	
		<rect x="-78.3" y="-43.2" style="display:inline;fill:#FAFAFA;stroke:#000000;stroke-miterlimit:10;" width="326.5" height="213.8"/>
</g>
<g id="Layer_1">
	<g>
		<path style="fill:#E63946;" d="M0,68.9c10.2,3.5,19.6,5.1,29.3,5.6c19.3,0.9,36.1-5.5,51.2-16.9c7-5.3,13.2-11.7,19.7-17.7
			c10.3-9.6,21-18.8,34.2-24.3c9-3.7,18.2-4.9,27.6-1.8c2,0.7,3.8,1.9,5.6,3.5c-7.2,0-13.7,2.1-19.8,5.2
			c-17.5,8.8-32.5,21-46.3,34.9C86.1,72.7,68,83.5,46.2,86.8c-17.4,2.6-32.4-2.6-44.6-15.5C1.2,70.9,0.9,70.3,0,68.9z"/>
		<path style="fill:#1D3557;" d="M143.2,8.2c-8.8,0.7-15.9,4.7-22.9,8.8C108.6,24,98.7,33.3,89.1,43C77.2,55,63.4,64.2,46.6,68
			c-16.1,3.6-30-0.3-41.1-13.3c1.9,0.5,3.7,1,5.6,1.5c1.9,0.4,3.9,0.7,5.8,1.1c20.4,4.1,38.7-1,54.7-13.9
			c7.5-6.1,14.2-13.2,21.4-19.8c7.3-6.7,14.8-13,24.3-16.4c7.3-2.6,14.8-3.3,22.3-0.9C140.8,6.7,142,7.6,143.2,8.2z"/>
		<path style="fill:#F7DCB7;" d="M117.3,2.2c-2.1,0.8-4.3,1.5-6.4,2.3C99.1,9.4,90,17.8,81.5,26.9c-9.2,10-19.3,18.6-32.3,23.1
			c-11.5,4-22.4,3.7-32.5-3.7c-1-0.7-1.8-1.7-2.5-2.3c7.6,0.1,15,0.8,22.4,0.3c11.1-0.7,20.8-5.6,29-13c7.8-7.1,15-14.9,22.9-21.9
			c8.6-7.5,15.9-9.9,23.3-9.3c3.2,0.3,5.7,1.1,7.4,1.9C118.5,2,117.9,2.1,117.3,2.2z"/>
	</g>
</g>
</svg>
