<?xml version="1.0" encoding="utf-8"?>
<!-- Generator: Adobe Illustrator 24.1.2, SVG Export Plug-In . SVG Version: 6.00 Build 0)  -->
<svg version="1.1" xmlns="http://www.w3.org/2000/svg" xmlns:xlink="http://www.w3.org/1999/xlink" x="0px" y="0px"
	 viewBox="0 0 562 562" style="enable-background:new 0 0 562 562;" xml:space="preserve">
<g id="Layer_7" style="display:none;">
	<rect x="-171.5" y="-92.5" style="display:inline;fill:#1D3557;stroke:#1B1B1B;stroke-miterlimit:10;" width="851" height="730"/>
</g>
<g id="Layer_1">
	<g>
		<path style="fill:#1B1B1B;" d="M281,14c36.1,0,71,7.1,103.9,21c31.8,13.4,60.3,32.7,84.9,57.2c24.5,24.5,43.8,53.1,57.2,84.9
			c13.9,32.9,21,67.9,21,103.9s-7.1,71-21,103.9c-13.4,31.8-32.7,60.3-57.2,84.9c-24.5,24.5-53.1,43.8-84.9,57.2
			c-32.9,13.9-67.9,21-103.9,21s-71-7.1-103.9-21c-31.8-13.4-60.3-32.7-84.9-57.2c-24.5-24.5-43.8-53.1-57.2-84.9
			C21.1,352,14,317.1,14,281s7.1-71,21-103.9c13.4-31.8,32.7-60.3,57.2-84.9c24.5-24.5,53.1-43.8,84.9-57.2
			C210,21.1,244.9,14,281,14 M281,0C125.8,0,0,125.8,0,281s125.8,281,281,281s281-125.8,281-281S436.2,0,281,0L281,0z"/>
	</g>
</g>
<g id="Layer_3" style="display:none;">
	<g style="display:inline;">
		<path style="fill:#1B1B1B;stroke:#1B1B1B;stroke-width:5;stroke-miterlimit:10;" d="M279.5,161.5c-2.5,1.2-4.7,2.8-6.7,4.7
			L143.3,297.2l-42,19.6c-4.7,2.2-6.8,7.8-4.6,12.5l2.3,4.9c-11.1,7.6-15.4,22.3-9.5,34.9c5.9,12.6,19.9,18.7,32.8,15.1l2.3,4.9
			c2.2,4.7,7.8,6.8,12.5,4.6l17.5-8.2l19.6,42c5.3,11.5,19,16.5,30.5,11.1l15.7-7.3c2.8-1.3,4-4.6,2.7-7.4c-1.3-2.8-4.6-4-7.4-2.7
			l-15.7,7.3c-5.9,2.7-12.9,0.2-15.7-5.7l-19.6-42l14.4-6.7l183.6-14.9c2.8-0.2,5.4-0.9,7.9-2.1c11.6-5.4,16.6-19.2,11.2-30.8
			l-71.6-153.6C304.8,161.1,291,156.1,279.5,161.5z M99.6,364.4c-3.2-7-1.3-15,4.2-19.9l13.7,29.4
			C110.3,375.1,102.8,371.4,99.6,364.4z M371.7,331c2.8,6,0.2,13.1-5.8,15.9c-1.3,0.6-2.7,1-4.1,1.1l-184.6,15
			c-0.7,0.1-1.3,0.2-1.9,0.5L134,382.8l-3.7-7.9l-19-40.7l-3.7-7.9l36.3-16.9l18,38.7c1.3,2.8,4.6,4,7.4,2.7s4-4.6,2.7-7.4
			L153.3,303l127.5-129c1-1,2.2-1.9,3.5-2.5c6-2.8,13.1-0.2,15.9,5.8L371.7,331L371.7,331z"/>
		<path style="fill:#E63946;stroke:#E63946;stroke-width:7;stroke-miterlimit:10;" d="M464.6,188l-55.7,26c-2.8,1.3-4,4.6-2.7,7.4
			c1.3,2.8,4.6,4,7.4,2.7l55.7-26c2.8-1.3,4-4.6,2.7-7.4C470.7,187.9,467.4,186.7,464.6,188z"/>
		<path style="fill:#E63946;stroke:#E63946;stroke-width:7;stroke-miterlimit:10;" d="M401.3,285.1c-2.9-1.1-6.1,0.4-7.2,3.3
			c-1.1,2.9,0.4,6.1,3.3,7.2l57.7,21c1.4,0.5,3,0.4,4.3-0.2c1.3-0.6,2.4-1.7,2.9-3.2c1.1-2.9-0.4-6.1-3.3-7.2L401.3,285.1z"/>
		<path style="fill:#E63946;stroke:#E63946;stroke-width:7;stroke-miterlimit:10;" d="M351.4,187.4c1.3-0.6,2.4-1.7,2.9-3.2l21-57.7
			c1.1-2.9-0.4-6.1-3.3-7.2c-2.9-1.1-6.1,0.4-7.2,3.3l-21,57.7c-1.1,2.9,0.4,6.1,3.3,7.2C348.5,188.1,350.1,188,351.4,187.4z"/>
	</g>
</g>
<g id="Layer_2" style="display:none;">
	<g style="display:inline;">
		<path style="fill:none;stroke:#E63946;stroke-width:14;stroke-linecap:round;stroke-linejoin:round;stroke-miterlimit:10;" d="
			M281,165c-86,0-160.8,46.7-201,116c40.2,69.3,115,116,201,116s160.8-46.7,201-116C441.8,211.7,367,165,281,165z"/>
		
			<circle style="fill:none;stroke:#1B1B1B;stroke-width:14;stroke-linecap:round;stroke-linejoin:round;stroke-miterlimit:10;" cx="281" cy="281" r="69.8"/>
	</g>
</g>
<g id="Layer_4" style="display:none;">
	<g id="Networking" style="display:inline;">
		<path style="fill:#E63946;" d="M281,235.6c-13,0-23.5,10.5-23.5,23.5c0,13,10.5,23.5,23.5,23.5s23.5-10.5,23.5-23.5
			C304.5,246.1,294,235.6,281,235.6L281,235.6z M281,269.5c-5.8,0-10.4-4.7-10.4-10.4c0-5.8,4.7-10.4,10.4-10.4s10.4,4.7,10.4,10.4
			C291.4,264.9,286.7,269.5,281,269.5L281,269.5z"/>
		<g>
			<path style="fill:#E63946;" d="M281,222.4c-32.4,0-58.6,26.2-58.6,58.6c0,32.4,26.2,58.6,58.6,58.6s58.6-26.2,58.6-58.6
				C339.6,248.6,313.4,222.4,281,222.4z M281,339.3c-13.7,0-27-4.9-37.5-13.8c11.2-20.7,37-28.5,57.7-17.3c7.3,4,13.4,10,17.3,17.3
				C308,334.4,294.7,339.3,281,339.3z M327.9,315.5c-16.7-25.9-51.3-33.3-77.2-16.6c-6.7,4.3-12.3,10-16.6,16.6
				c-7.4-10-11.4-22.1-11.4-34.5c-0.1-32.2,26-58.3,58.2-58.4c32.2-0.1,58.3,26,58.4,58.2C339.3,293.2,335.3,305.4,327.9,315.5
				L327.9,315.5z"/>
		</g>
		<path style="fill:#1B1B1B;" d="M470.4,274.4c-3.2-18.7-19.4-32.3-38.3-32.3c-18.9,0-35.1,13.6-38.3,32.3h-42.4
			c-1.3-14.2-6.9-27.7-16-38.6l30-30c15.4,11,36.5,9.2,49.9-4.2c14.9-15.3,14.9-39.7,0-55c-15.5-14.8-40.1-14.2-54.9,1.3
			c-12.6,13.2-14.3,33.5-4,48.6l-30.2,30c-11-9.1-24.4-14.7-38.6-16v-42.4c21.1-3.6,35.4-23.7,31.7-44.8
			c-3.6-21.1-23.7-35.4-44.8-31.7c-21.1,3.6-35.4,23.7-31.7,44.8c2.8,16.2,15.5,29,31.7,31.7v42.4c-14.2,1.3-27.7,6.9-38.6,16
			l-29.9-30c4.7-6.5,7.2-14.4,7.1-22.4c0-21.5-17.4-38.8-38.8-38.8s-38.8,17.4-38.8,38.8s17.4,38.8,38.8,38.8
			c8-0.1,15.8-2.6,22.4-7.2l30,30c-9.1,11-14.7,24.4-16,38.6h-42.3c-3.6-21.1-23.7-35.4-44.8-31.7c-21.1,3.6-35.4,23.7-31.7,44.8
			c3.6,21.1,23.7,35.4,44.8,31.7c16.2-2.8,29-15.5,31.7-31.7h42.3c1.3,14.2,6.9,27.7,16,38.6l-30,30c-17.5-12.3-41.7-8.1-54,9.4
			c-12.3,17.5-8.1,41.7,9.4,54c17.5,12.3,41.7,8.1,54-9.4c4.6-6.6,7.1-14.4,7.1-22.4c0-8-2.5-15.9-7.1-22.4l29.9-30
			c11,9.1,24.4,14.7,38.6,16v42.4c-21.1,3.6-35.4,23.7-31.7,44.8c3.6,21.1,23.7,35.4,44.8,31.7c21.1-3.6,35.4-23.7,31.7-44.8
			c-2.8-16.2-15.5-29-31.7-31.7v-42.4c14.2-1.3,27.7-6.9,38.6-16l30,30c-12.4,17.5-8.3,41.7,9.2,54.2c17.5,12.4,41.7,8.3,54.2-9.2
			c12.4-17.5,8.3-41.7-9.2-54.2c-13.5-9.5-31.5-9.5-44.9,0l-30-30c9.1-11,14.7-24.4,16-38.6h42.4c3.6,21.1,23.7,35.4,44.8,31.7
			S474,295.6,470.4,274.4z M369.6,156c10.1-10,26.4-10,36.4,0c10.1,10.1,10.1,26.4,0,36.4c-10.1,10.1-26.4,10.1-36.4,0
			C359.6,182.3,359.6,166,369.6,156z M192.3,192.4c-10.1,10-26.4,10-36.4,0c-10-10.1-10-26.4,0-36.4c10.1-10,26.4-10,36.4,0
			C202.4,166,202.4,182.3,192.3,192.4z M129.9,306.7h-0.1c-14.2-0.1-25.7-11.7-25.5-25.9c0.1-14.2,11.7-25.7,25.9-25.5
			c14.1,0.1,25.5,11.6,25.5,25.7C155.6,295.2,144.1,306.7,129.9,306.7z M192.3,406c-10.1,10-26.4,10-36.4,0s-10-26.4,0-36.4
			c10.1-10,26.3-10,36.4,0C202.4,379.7,202.4,396,192.3,406z M369.6,369.8c10.1-10,26.4-10,36.4,0c10,10.1,10,26.4,0,36.4
			c-10.1,10-26.4,10-36.4,0C359.5,396.1,359.5,379.8,369.6,369.8z M255.2,129.9v-0.1c0.1-14.2,11.7-25.7,25.9-25.6
			c14.2,0.1,25.7,11.7,25.6,25.9c-0.1,14.2-11.6,25.6-25.7,25.6C266.7,155.6,255.2,144.1,255.2,129.9z M306.7,432.1v0.1
			c-0.1,14.2-11.7,25.7-25.9,25.6c-14.2-0.1-25.7-11.7-25.6-25.9c0.1-14.2,11.6-25.6,25.7-25.6C295.2,406.4,306.7,417.9,306.7,432.1
			z M281,339c-32,0-58-26-58-58c0-32,26-58,58-58s58,26,58,58C339,313,313,339,281,339z M432.1,306.7l0.1,0.1
			c-14.2,0.1-25.8-11.4-25.9-25.6c0-0.1,0-0.2,0-0.3c0-14.2,11.5-25.7,25.7-25.7s25.7,11.5,25.7,25.7
			C457.8,295.2,446.3,306.7,432.1,306.7z"/>
	</g>
</g>
<g id="Layer_5" style="display:none;">
	<g style="display:inline;">
		<path style="fill:#1B1B1B;" d="M334,265.2l-2.6-1.7l1.8-2.5c8.3-11.3,12.6-24.6,12.6-38.4c0-17.4-6.8-33.8-19.2-46.2
			c-12.4-12.4-28.8-19.2-46.2-19.2c-36,0-65.3,29.3-65.3,65.3c0,14,4.5,27.5,12.9,38.9l1.8,2.5l-2.5,1.8
			c-16.2,11.3-25.4,27.8-25.4,45.2v94.1h13v-94.1c0-14.1,8.5-27.8,22.7-36.5l1.7-1.1l1.6,1.2c11.5,8.7,25.1,13.4,39.4,13.4
			c14.5,0,28.3-4.7,39.8-13.7l1.6-1.3l1.8,1c14.6,8.7,23.3,22.5,23.3,36.8v94.1h13v-94.1C360,293.1,350.5,276.4,334,265.2z
			 M280.5,274.8c-28.8,0-52.3-23.5-52.3-52.3c0-28.9,23.5-52.3,52.3-52.3c28.9,0,52.3,23.5,52.3,52.3
			C332.9,251.3,309.4,274.8,280.5,274.8z"/>
		<path style="fill:#E63946;" d="M161.4,201.2c-22.9,0-41.5,18.6-41.5,41.6c0,7.5,2.2,15,6.3,21.7l1.4,2.2l-2,1.7
			c-8.6,7.1-13.5,16.9-13.5,27v53.4h13v-53.4c0-6.6,3.7-13.1,10-17.9l1.7-1.3l1.8,1.2c6.8,4.5,14.7,6.9,22.9,6.9
			c22.9,0,41.6-18.6,41.6-41.5C203,219.9,184.3,201.2,161.4,201.2z M161.4,271.3c-15.7,0-28.5-12.8-28.5-28.5
			c0-15.7,12.8-28.5,28.5-28.5c15.7,0,28.5,12.8,28.5,28.5C189.9,258.5,177.1,271.3,161.4,271.3z"/>
		<path style="fill:#E63946;" d="M436.2,268.1l-2-1.6l1.4-2.2c4-6.6,6.1-14,6.1-21.4c0-22.9-18.6-41.6-41.5-41.6
			c-22.9,0-41.6,18.6-41.6,41.6c0,22.9,18.6,41.5,41.6,41.5c8.3,0,16.3-2.5,23.2-7.1l1.7-1.2l1.7,1.2c6.5,4.7,10.3,11.3,10.3,18.1
			v53.4h13v-53.4C450,285.1,445,275.2,436.2,268.1z M400.1,271.3c-15.7,0-28.5-12.8-28.5-28.5c0-15.7,12.8-28.5,28.5-28.5
			c15.7,0,28.5,12.8,28.5,28.5C428.6,258.5,415.8,271.3,400.1,271.3z"/>
	</g>
</g>
<g id="Layer_6">
	<g>
		<path style="fill:#1B1B1B;" d="M430.1,281.4c-4.3,0-8.4,0.8-12.3,2.5l-10.3,4.4L362,307.6l5.3,12.6l45.4-19.2l10.3-4.4
			c2.3-1,4.7-1.5,7.2-1.5c6.7,0,12.8,3.7,15.5,9.5c2,4.1,2.2,8.8,0.4,13.1c-1.7,4.3-4.9,7.6-8.9,9.2l-166.1,70.4
			c-6.6,2.8-13.5,4.2-20.6,4.2c-7.8,0-15.5-1.8-22.5-5.2l0,0l0,0l-77.4-39l-6.1,12l77.7,39c8.9,4.3,18.8,6.6,28.7,6.6
			c9.1,0,17.8-1.8,25.3-5.2l0.1,0l0.1,0l166.1-70.1c7.5-3.3,13.4-9.3,16.4-17c3.1-7.9,2.8-16.1-0.8-23.7
			C453.2,288.2,442.2,281.4,430.1,281.4z"/>
		<path style="fill:#1B1B1B;" d="M202.9,261.6c8.4,0.9,16.2,3.1,23.8,6.6l76.2,33.8c3.1,1.3,5.6,3.6,7.3,6.4
			c2.9,4.6,3.3,10.2,1.3,15.6l-0.1,0.2l-0.1,0.2c-0.7,1.5-1.4,2.5-2.1,3.5l-0.2,0.3l-0.3,0.3c-3.3,3.6-7.7,5.6-12.5,5.6
			c-2.3,0-4.6-0.5-6.7-1.4l-54.4-24.2l-5.6,12.4l54.3,24.2c4.2,1.8,8.5,2.8,12.4,2.8c8.7,0,16.8-3.7,22.8-10.4
			c2.2-2.5,3.9-5,5.1-7.5c4-9.3,3.3-20-2-28.6c-3.4-5.2-7.9-9.1-13.1-11.3l0,0l0,0l-76.6-34.2c-8.4-3.8-18-6.4-27.7-7.6
			c-3.6-0.4-7.3-0.6-10.9-0.6c-20.9,0-40.8,6.7-57.5,19.3L101,295.8v121.9h13.6V304.6v-2.3l1.8-1.5l27.7-23l0.1-0.1l0.1-0.1
			c14.3-10.8,31.2-16.6,48.9-16.6C196.4,261.1,199.7,261.3,202.9,261.6z"/>
		<path style="fill:#E63946;" d="M404.1,170.3c-1-1.4-2.5-2.4-4.4-3.2c0.1,1.7,0,3.1-0.4,4.2l-22.3,73.3c-0.4,1.3-1.3,2.3-2.6,3.1
			c-1.3,0.8-2.7,1.2-4.2,1.2h-68.5c-5.9,0-9.5-1.7-10.7-5.2c-0.5-1.3-0.5-2.4,0.1-3.2c0.5-0.7,1.5-1.1,2.8-1.1h64.5
			c4.6,0,7.8-0.9,9.5-2.6c1.8-1.7,3.5-5.5,5.3-11.4l20.3-67.3c1.1-3.7,0.6-6.9-1.3-9.7c-2-2.8-4.8-4.2-8.5-4.2h-56.5
			c-0.6,0-1.9,0.2-3.8,0.7l0.1-0.2c-1.4-0.3-2.6-0.4-3.5-0.4c-1,0-1.9,0.3-2.7,0.9c-0.8,0.5-1.5,1.1-2,1.7c-0.5,0.6-1,1.4-1.4,2.4
			c-0.5,1-0.9,1.9-1.2,2.7c-0.3,0.8-0.7,1.7-1.1,2.6c-0.4,0.9-0.8,1.7-1.2,2.3c-0.3,0.4-0.7,0.9-1.3,1.6c-0.5,0.6-1,1.2-1.3,1.7
			c-0.3,0.5-0.6,0.9-0.7,1.3c-0.1,0.4,0,1.1,0.1,2c0.2,0.9,0.3,1.5,0.2,1.9c-0.2,1.9-0.9,4.3-2,7.2c-1.2,2.9-2.2,5-3.2,6.3
			c-0.2,0.2-0.7,0.8-1.6,1.7c-0.9,0.9-1.4,1.6-1.6,2.3c-0.2,0.2-0.2,0.9,0,2.1c0.2,1.1,0.2,1.9,0.2,2.4c-0.2,1.7-0.8,3.9-1.9,6.7
			c-1,2.8-2.1,5-3.1,6.8c-0.1,0.3-0.6,0.9-1.3,1.7c-0.7,0.8-1.1,1.5-1.3,2.1c-0.1,0.4-0.1,1.1,0,2.1c0.1,1,0.1,1.7,0,2.2
			c-0.4,1.9-1.1,4.1-2.2,6.8c-1.1,2.6-2.2,4.9-3.3,6.8c-0.3,0.5-0.7,1.1-1.2,1.7c-0.5,0.7-0.9,1.2-1.2,1.7c-0.3,0.5-0.5,1-0.6,1.6
			c0,0.3,0,0.8,0.2,1.4c0.2,0.7,0.3,1.2,0.2,1.6c0,0.7-0.1,1.6-0.3,2.7c-0.1,1.1-0.2,1.8-0.2,2c-1.1,3-1,6.1,0.1,9.4
			c1.4,3.9,3.8,7.1,7.4,9.8c3.5,2.6,7.2,4,11,4h68.5c3.2,0,6.2-1.1,9.1-3.2c2.8-2.2,4.7-4.8,5.7-8l20.4-67.3
			C406.5,176.3,406.1,173.1,404.1,170.3z M325.1,170.4l1.6-4.8c0.2-0.6,0.6-1.2,1.2-1.7c0.6-0.5,1.3-0.7,1.9-0.7h45.1
			c0.7,0,1.2,0.2,1.5,0.7c0.3,0.5,0.3,1,0.1,1.7l-1.6,4.8c-0.2,0.6-0.6,1.2-1.2,1.7c-0.6,0.5-1.2,0.7-1.9,0.7h-45.1
			c-0.7,0-1.2-0.2-1.5-0.7C324.9,171.6,324.9,171.1,325.1,170.4z M318.9,189.4l1.6-4.8c0.2-0.6,0.6-1.2,1.2-1.7
			c0.6-0.5,1.2-0.7,1.9-0.7h45.1c0.7,0,1.2,0.2,1.5,0.7c0.3,0.5,0.3,1,0.1,1.7l-1.6,4.8c-0.2,0.6-0.6,1.2-1.2,1.7
			c-0.6,0.5-1.2,0.7-1.9,0.7h-45.1c-0.7,0-1.2-0.2-1.5-0.7C318.8,190.6,318.7,190.1,318.9,189.4z"/>
	</g>
	<g>
	</g>
	<g>
	</g>
	<g>
	</g>
	<g>
	</g>
	<g>
	</g>
	<g>
	</g>
	<g>
	</g>
	<g>
	</g>
	<g>
	</g>
	<g>
	</g>
	<g>
	</g>
	<g>
	</g>
	<g>
	</g>
	<g>
	</g>
	<g>
	</g>
</g>
</svg>
